<?xml version="1.0" encoding="iso-8859-1"?>
<!-- Generator: Adobe Illustrator 19.0.0, SVG Export Plug-In . SVG Version: 6.00 Build 0)  -->
<svg version="1.1" id="Layer_1" xmlns="http://www.w3.org/2000/svg" xmlns:xlink="http://www.w3.org/1999/xlink" x="0px" y="0px"
	 viewBox="0 0 512.001 512.001" style="enable-background:new 0 0 512.001 512.001;" xml:space="preserve">
<g>
	<g>
		<path d="M505.89,299.058c-4.934-10.181-13.028-19.319-23.397-25.528L240.442,128.573c-3.12-1.869-6.688-2.855-10.325-2.855
			h-50.848c-11.098,0-20.095,8.997-20.095,20.095c0,9.364-14.388,19.839-33.643,19.839c-19.255,0-33.643-10.473-33.643-19.839
			c0-11.098-8.997-20.095-20.095-20.095h-51.7C8.997,125.718,0,134.715,0,145.813c0,2.74,0,217.403,0,220.375
			c0,11.098,8.997,20.095,20.095,20.095h431.219c33.463,0,60.688-27.224,60.688-60.688C512,315.291,508.861,304.258,505.89,299.058z
			 M40.19,165.908h15.713c22.85,53.006,116.318,53.218,139.258,0h29.399l29.728,17.803c-9.734,9.735-8.081,22.169-0.915,29.333
			c7.848,7.848,20.57,7.848,28.418,0l8.045-8.045l23.322,13.967l-12.721,12.721c-7.848,7.846-7.848,20.57,0,28.418
			c7.848,7.848,20.57,7.846,28.418,0l19.851-19.851l79.311,47.497h-232.17l15.915-21.106c9.963-13.213,0.518-32.193-16.045-32.193
			H118.91c-6.307,0-12.248,2.961-16.045,7.996l-34.16,45.303H40.19V165.908z M155.397,274.642l-9.885,13.11h-26.473l9.885-13.11
			H155.397z M451.314,346.094H40.19v-18.152c7.623,0,423.874,0,431.488,0C470.51,338.143,461.822,346.094,451.314,346.094z" fill="#754F98" />
	</g>
</g>
</svg>
